<svg height="512pt" viewBox="0 0 512 512" width="512pt" xmlns="http://www.w3.org/2000/svg"><path d="m427 335.902344c0 16.570312-13.429688 30-30 30s-30-13.429688-30-30c0-16.566406 13.429688-30 30-30s30 13.433594 30 30zm84.976562.078125v5.992187c0 31.75-17.621093 68.183594-52.371093 108.296875-24.601563 28.394531-48.953125 48.316407-49.980469 49.152344l-12.625 10.277344-12.625-10.277344c-1.023438-.835937-25.378906-20.757813-49.980469-49.152344-34.75-40.113281-52.371093-76.546875-52.371093-108.296875v-5.992187c0-63.398438 51.578124-114.980469 114.976562-114.980469s114.976562 51.582031 114.976562 114.980469zm-40 0c0-41.34375-33.632812-74.980469-74.976562-74.980469s-74.976562 33.636719-74.976562 74.980469v5.992187c0 38.585938 46.347656 89.191406 74.976562 115.433594 28.625-26.238281 74.976562-76.847656 74.976562-115.433594zm-15.113281-335.980469h-401.753906l-55.109375 184.070312v2.929688c0 17.894531 7.058594 34.605469 19.875 47.046875 6.167969 5.984375 13.332031 10.644531 21.125 13.851563v204.101562c0 33.085938 26.914062 60 60 60h237.371094c-9.808594-9.246094-22.015625-21.464844-34.207032-35.539062-1.292968-1.488282-2.5625-2.976563-3.8125-4.460938h-199.351562c-11.027344 0-20-8.972656-20-20v-40.882812h178.59375c-6.644531-13.613282-11.402344-26.957032-14.277344-40h-164.316406v-119.601563c12.695312-2.710937 24.074219-9.011719 33-17.8125 12.101562 11.929687 28.707031 19.296875 47 19.296875 18.441406 0 35.167969-7.488281 47.292969-19.585938 12.285156 12.105469 29.136719 19.585938 47.707031 19.585938 3.644531 0 7.21875-.296875 10.710938-.851562 14.832031-22.972657 35.5625-41.789063 60.039062-54.289063-1.757812-3.582031-2.75-7.605469-2.75-11.859375v-21h-40v20c0 15.4375-12.5625 28-28 28s-28-12.5625-28-28v-20h-40v21c0 14.886719-12.113281 27-27 27s-27-12.113281-27-27v-21h-40v21c0 14.886719-12.113281 27-27 27-14.253906 0-25.597656-10.121094-26.878906-23.472656l44.769531-149.527344h342.246094l44.746093 148.550781c-.34375 3.632813-1.414062 7.058594-3.058593 10.132813 11.929687 6.265625 22.949219 14.039062 32.796875 23.066406 6.5625-10.355469 10.378906-22.609375 10.378906-35.75v-2.945312zm0 0"/></svg>